<svg id="Layer_1" data-name="Layer 1" xmlns="http://www.w3.org/2000/svg" xmlns:xlink="http://www.w3.org/1999/xlink" viewBox="0 0 85.04 85.04"><defs><style>.cls-1{fill:none;stroke-miterlimit:10;stroke-width:3px;stroke:url(#linear-gradient);}</style><linearGradient id="linear-gradient" x1="7.05" y1="12.31" x2="83.66" y2="77.58" gradientUnits="userSpaceOnUse"><stop offset="0" stop-color="#a9088e"/><stop offset="1" stop-color="#001d7c"/></linearGradient></defs><path class="cls-1" d="M82.81,10q-35.07,0-70.14,0a.6.6,0,0,0-.1.32c0,.35-.06.7-.06,1.05q0,4.28,0,8.55c0,1-.07,1.05-1.06,1.05-1.83,0-3.65,0-5.48,0a30.65,30.65,0,0,0-4.39.1c-.25.28-.13.62-.13.94q0,26,0,52.1c0,1,0,1,1,1H82.65a2,2,0,0,0,1-.08q0-32.11,0-64.23C83.62,10.1,83.47,10,82.81,10ZM23.39,51c-5.16,0-10.32,0-15.48,0-.57,0-.74-.14-.74-.73,0-5.18,0-10.36,0-15.54,0-.51.07-.72.66-.72,5.21,0,10.43,0,15.65,0,.54,0,.7.13.69.69,0,2.62,0,5.24,0,7.86s0,5.06,0,7.59C24.19,50.74,24.1,51,23.39,51Zm17.74,0a8.48,8.48,0,1,1,8.51-8.39A8.56,8.56,0,0,1,41.13,51Zm17.18,0c-.09-.22,0-.35.14-.5l9.11-15.61c.47-.8.49-.8,1,0q4.59,7.83,9.16,15.68c.06.1.1.2.22.43Z"/></svg>