<svg id="Layer_1" data-name="Layer 1" xmlns="http://www.w3.org/2000/svg" xmlns:xlink="http://www.w3.org/1999/xlink" viewBox="0 0 85.04 85.04"><defs><style>.cls-1{fill:url(#linear-gradient);}.cls-2{fill:url(#linear-gradient-2);}.cls-3{fill:url(#linear-gradient-3);}.cls-4{fill:url(#linear-gradient-4);}.cls-5{fill:url(#linear-gradient-5);}</style><linearGradient id="linear-gradient" x1="4.03" y1="11.53" x2="78.2" y2="74.72" gradientUnits="userSpaceOnUse"><stop offset="0" stop-color="#a9088e"/><stop offset="1" stop-color="#001d7c"/></linearGradient><linearGradient id="linear-gradient-2" x1="35.62" y1="21.91" x2="51.85" y2="35.73" xlink:href="#linear-gradient"/><linearGradient id="linear-gradient-3" x1="38.56" y1="14.53" x2="48.75" y2="23.21" xlink:href="#linear-gradient"/><linearGradient id="linear-gradient-4" x1="59.81" y1="61.23" x2="67.33" y2="67.64" xlink:href="#linear-gradient"/><linearGradient id="linear-gradient-5" x1="61.82" y1="51.97" x2="65.2" y2="54.86" xlink:href="#linear-gradient"/></defs><g id="WDZAgj.tif"><path class="cls-1" d="M5.58,72.59v-62a14.32,14.32,0,0,1,7.29-7.29H67.54q0,18.06,0,36.13c0,1.42-.08,2.5,1.78,3.17,9.93,3.54,15.45,12.48,13.77,21.86-1.83,10.21-9.77,16.58-20.77,16.59-14.47,0-28.94-.16-43.41.08C12.3,81.28,7.83,78.87,5.58,72.59ZM23.86,33.77c0,7.79.06,15.58,0,23.37,0,2,.48,2.68,2.52,2.63,5.06-.13,10.13-.14,15.18,0,1.84.06,2.37-.65,2.76-2.29,2-8.67,7.52-13.86,16.26-15.48,1.79-.34,2.53-.86,2.5-2.82q-.15-14.43,0-28.85c0-2.18-.75-2.68-2.8-2.67q-16.85.13-33.7,0c-2.13,0-2.76.61-2.72,2.73C23.93,18.18,23.86,26,23.86,33.77Zm54.87,27.6a15.19,15.19,0,0,0-30.38,0,15.19,15.19,0,1,0,30.38,0ZM10.61,61a16.29,16.29,0,0,1,7-1.31c1.58.15,1.81-.79,1.8-2.07q0-24,0-47.91c0-1.62-.64-2-2.16-2.07-4.75-.12-7.08,2-7.09,6.91q0,22,0,44A3.69,3.69,0,0,0,10.61,61ZM50,76.42c-1.45-2.91-3.21-4-6.16-3.86-8.08.23-16.17,0-24.26.11-1.69,0-2.52-.23-2.52-2.26s.91-2.26,2.56-2.25c7.38.06,14.76.07,22.14,0,.94,0,2.72.93,2.74-1.17,0-1.75-.54-2.92-2.86-2.87-7.07.17-14.15.05-21.22.07a28.82,28.82,0,0,0-5.43.29,5.82,5.82,0,0,0-4.73,6.44,5.59,5.59,0,0,0,5.47,5.46C27,76.5,38.34,76.42,50,76.42Z"/><path class="cls-2" d="M43.82,26.5c3.53,0,7.07.09,10.6,0,1.84-.07,2.18.73,2.17,2.34s-.24,2.41-2.12,2.39Q43.7,31.07,33,31.2c-2,0-2-1.08-2-2.5s.22-2.28,2-2.23C36.54,26.58,40.18,26.51,43.82,26.5Z"/><path class="cls-3" d="M43.6,16.67c1.82,0,3.64.09,5.45,0s2.34.41,2.29,2.18c0,1.57-.29,2.43-2.15,2.37-3.64-.12-7.28-.13-10.91,0-2,.08-2.25-.85-2.31-2.54-.06-2,1-2,2.47-2C40.16,16.71,41.88,16.67,43.6,16.67Z"/><path class="cls-4" d="M65.78,64.64c0,1.12-.07,2.23,0,3.34.11,1.54-.17,2.42-2.07,2.41S61.17,69.9,61.28,68c.14-2.52.1-5.06,0-7.58-.07-1.92,1.16-1.72,2.4-1.76s2.2.1,2.09,1.74C65.7,61.81,65.77,63.23,65.78,64.64Z"/><path class="cls-5" d="M65.75,53.41a2.15,2.15,0,0,1-2.33,2.17,2,2,0,0,1-2-2.14,1.92,1.92,0,0,1,2-2.16C64.82,51.18,65.52,52,65.75,53.41Z"/></g></svg>