<svg id="Layer_1" data-name="Layer 1" xmlns="http://www.w3.org/2000/svg" xmlns:xlink="http://www.w3.org/1999/xlink" viewBox="0 0 85.04 85.04"><defs><style>.cls-1{fill:url(#linear-gradient);}</style><linearGradient id="linear-gradient" x1="8.68" y1="13.61" x2="68.71" y2="64.76" gradientUnits="userSpaceOnUse"><stop offset="0" stop-color="#a9088e"/><stop offset="1" stop-color="#001d7c"/></linearGradient></defs><g id="uTlPRm.tif"><path class="cls-1" d="M47.41,2c3,2,3.87,4.81,3.75,8.31-.19,5.71.08,11.45-.11,17.17-.09,2.8.49,4,3.64,3.8,5.6-.29,11.23,0,16.84-.12a8.22,8.22,0,0,1,7.06,3.17c1.51,1.83,3.25,3.47,4.78,5.29,2.32,2.75,2.25,5.43-.16,8.13-1.23,1.37-2.66,2.55-3.81,4a10.3,10.3,0,0,1-9.08,3.91c-5.5-.22-11,0-16.52-.1-2.16-.05-2.76.71-2.73,2.78.11,6.48.07,13,0,19.45,0,5.39-2.06,7.32-7.55,7.29-5.14,0-7.11-2.05-7.12-7.38,0-12.86-.07-25.71,0-38.56,0-2.47-.7-3.13-3.09-3.06-5.72.17-11.45,0-17.17.09-3.26.08-5.85-.81-7.95-3.41S3.78,28.06,2,25.35V21.46c2.22-2.31,4.52-4.55,6.65-6.94a8.29,8.29,0,0,1,6.88-2.83c6.15.12,12.3,0,18.45.06,1.66,0,2.73-.19,2.47-2.22-.45-3.37,1-5.8,3.83-7.54ZM24.77,31.19c3.12,0,6.25-.08,9.37,0,1.69.06,2.28-.49,2.22-2.2-.11-3.34-.12-6.69,0-10,.07-1.89-.67-2.41-2.44-2.39-5.93.07-11.86,0-17.78,0-2.21,0-8.28,4.47-9,6.52-.31.92.32,1.37.75,2,3.12,4.31,6.79,7.38,12.64,6.11A20.29,20.29,0,0,1,24.77,31.19ZM63.16,50.65c5-.34,10.89,1.64,15-4.42,1.51-2.23,2.2-3.45,0-5.2-2.05-1.6-2.93-4.83-6.07-4.89-6.26-.12-12.52,0-18.78-.06-1.75,0-2.22.7-2.18,2.31.08,3.35.12,6.7,0,10-.08,2,.84,2.3,2.52,2.25C56.61,50.58,59.64,50.65,63.16,50.65ZM41.37,43.52c0,11.13,0,22.27,0,33.4,0,1.83-.14,3.41,2.57,3.35s2.23-1.71,2.23-3.29q0-33.42,0-66.82c0-1.81.21-3.38-2.53-3.32s-2.26,1.68-2.26,3.27Q41.36,26.82,41.37,43.52Z"/></g></svg>