<svg id="Layer_1" data-name="Layer 1" xmlns="http://www.w3.org/2000/svg" xmlns:xlink="http://www.w3.org/1999/xlink" viewBox="0 0 85.04 85.04"><defs><style>.cls-1{fill:url(#linear-gradient);}.cls-2{fill:url(#linear-gradient-2);}.cls-3{fill:url(#linear-gradient-3);}.cls-4{fill:url(#linear-gradient-4);}</style><linearGradient id="linear-gradient" x1="44.43" y1="46.96" x2="78.39" y2="75.9" gradientUnits="userSpaceOnUse"><stop offset="0" stop-color="#a9088e"/><stop offset="0.12" stop-color="#9f098d"/><stop offset="0.32" stop-color="#830d8a"/><stop offset="0.58" stop-color="#561285"/><stop offset="0.89" stop-color="#181a7f"/><stop offset="1" stop-color="#001d7c"/></linearGradient><linearGradient id="linear-gradient-2" x1="6.07" y1="5.84" x2="61.29" y2="52.88" xlink:href="#linear-gradient"/><linearGradient id="linear-gradient-3" x1="53.72" y1="50.35" x2="68.34" y2="62.81" xlink:href="#linear-gradient"/><linearGradient id="linear-gradient-4" x1="60.12" y1="74.06" x2="62.71" y2="76.28" xlink:href="#linear-gradient"/></defs><g id="Muwpv5.tif"><path class="cls-1" d="M59.59,83.76c-1.33-.31-2.68-.45-4-.79A22.32,22.32,0,1,1,83.47,58.1a8.84,8.84,0,0,0,.28,2v3.06a5.63,5.63,0,0,0-.14.69A22.3,22.3,0,0,1,66.36,83.15c-1.07.24-2.15.41-3.22.61ZM42.52,61.24A18.89,18.89,0,1,0,61.33,42.53C51,42.6,42.43,51.11,42.52,61.24Z"/><path class="cls-2" d="M1.29,33.9V13.61A5.16,5.16,0,0,1,6.7,8.2c1.4,0,2.79,0,4.19,0,.56,0,.76-.14.72-.72a5.46,5.46,0,0,1,.65-3.26c1.12-2,2.93-2.58,5-2.79C25.07.67,31.91,3,38.05,7.64c1,.78,1,.77,2.05,0A29.53,29.53,0,0,1,54.18,1.55a26.4,26.4,0,0,1,8.18.11,5.22,5.22,0,0,1,4.2,5.27c0,1.27,0,1.27,1.29,1.27s2.47,0,3.7,0a5,5,0,0,1,5.3,5.18c0,6.81,0,13.63,0,20.45a1.63,1.63,0,0,1-1.72,1.8,1.65,1.65,0,0,1-1.69-1.83q0-9.9,0-19.81c0-1.88-.51-2.38-2.39-2.38-1.23,0-2.47,0-3.7,0-.63,0-.81.16-.81.8,0,5.37,0,10.74,0,16.1,0,.62,0,1.24,0,1.86a1.72,1.72,0,1,1-3.41-.06q0-9.42,0-18.84c0-1.48,0-2.95,0-4.43a1.8,1.8,0,0,0-1.74-2,24,24,0,0,0-17,3.77,35.69,35.69,0,0,0-3,2.15,1.51,1.51,0,0,0-.64,1.36q0,13.92,0,27.85c0,1.52-.59,2.35-1.67,2.38s-1.75-.84-1.75-2.39q0-13.92,0-27.85a1.54,1.54,0,0,0-.65-1.35,26.67,26.67,0,0,0-13.31-6A21.88,21.88,0,0,0,16.76,5,1.83,1.83,0,0,0,15,7q0,19.88,0,39.77c0,1.45.78,2.14,2.29,2A27.29,27.29,0,0,1,30.49,50.6c.6.23,1.18.51,1.76.79a1.72,1.72,0,0,1,1,2.32,1.74,1.74,0,0,1-2.38.82,31.28,31.28,0,0,0-4.6-1.69,24.09,24.09,0,0,0-8.7-.64c-3.7.43-6-2.55-6-5.73.1-11.32,0-22.65.06-34,0-.76-.21-.94-.93-.91-1.31.06-2.63,0-3.95,0a1.81,1.81,0,0,0-2,2q0,20.3,0,40.58c0,1.41.61,2,2,2H30.24a1.81,1.81,0,0,1,2,1.77,1.79,1.79,0,0,1-1.95,1.72c-7.92,0-15.84,0-23.75,0a5.07,5.07,0,0,1-5.22-5.36Z"/><path class="cls-3" d="M59.72,67.33a10.48,10.48,0,0,1,4.05-8.06,11.06,11.06,0,0,0,1.63-1.43,5.19,5.19,0,0,0,.32-6.08,5.16,5.16,0,0,0-9.46,2.46,2.29,2.29,0,0,1-.35,1.37,1.75,1.75,0,0,1-1.95.57,1.69,1.69,0,0,1-1.13-1.68,8.58,8.58,0,1,1,14,6.74,13.92,13.92,0,0,0-2.17,2,7.13,7.13,0,0,0-1.52,5A1.74,1.74,0,0,1,61.38,70a1.76,1.76,0,0,1-1.66-1.82C59.71,67.92,59.72,67.62,59.72,67.33Z"/><path class="cls-4" d="M61.41,76.86a1.64,1.64,0,0,1-1.68-1.67,1.68,1.68,0,0,1,1.7-1.74,1.74,1.74,0,0,1,1.7,1.69A1.69,1.69,0,0,1,61.41,76.86Z"/></g></svg>