<svg id="Layer_1" data-name="Layer 1" xmlns="http://www.w3.org/2000/svg" xmlns:xlink="http://www.w3.org/1999/xlink" viewBox="0 0 85.04 85.04"><defs><style>.cls-1{fill:none;stroke-miterlimit:10;stroke-width:3px;stroke:url(#linear-gradient);}.cls-2{fill:url(#linear-gradient-2);}.cls-3{fill:url(#linear-gradient-3);}</style><linearGradient id="linear-gradient" x1="42.82" y1="46.72" x2="78.57" y2="77.18" gradientUnits="userSpaceOnUse"><stop offset="0" stop-color="#a9088e"/><stop offset="1" stop-color="#001d7c"/></linearGradient><linearGradient id="linear-gradient-2" x1="52.6" y1="54.31" x2="70.68" y2="69.71" gradientUnits="userSpaceOnUse"><stop offset="0" stop-color="#a9088e"/><stop offset="0.12" stop-color="#9f098d"/><stop offset="0.32" stop-color="#830d8a"/><stop offset="0.58" stop-color="#561285"/><stop offset="0.89" stop-color="#181a7f"/><stop offset="1" stop-color="#001d7c"/></linearGradient><linearGradient id="linear-gradient-3" x1="7.15" y1="5.67" x2="62.36" y2="52.72" xlink:href="#linear-gradient-2"/></defs><path class="cls-1" d="M77.93,48.37a4.5,4.5,0,0,0-.31-.45,21.36,21.36,0,0,0-2.34-2.42c-1-.83-1-.83-1.92-.08l-.83.64a2.38,2.38,0,0,1-2.77.23,21.61,21.61,0,0,0-4.51-1.85,2.35,2.35,0,0,1-1.73-2.09,8.72,8.72,0,0,1-.17-1.43c0-.67-.32-.85-.92-.89a25.68,25.68,0,0,0-3,0c-1.21,0-1.21.07-1.35,1.31,0,.29-.09.58-.12.87a2.49,2.49,0,0,1-2,2.33A12.44,12.44,0,0,0,53,45.6C50.51,47,50,47.1,47.57,45a.6.6,0,0,0-1,0c-.68.68-1.42,1.3-2.08,2-1.15,1.2-1.13,1.22-.13,2.53.17.21.33.42.49.64a2.29,2.29,0,0,1,.2,2.56,23,23,0,0,0-1.93,4.65,2.25,2.25,0,0,1-1.88,1.65c-.63.11-1.27.21-1.9.26-.41,0-.55.18-.58.58a33.36,33.36,0,0,0,0,4c0,.39.15.57.56.6.61,0,1.22.14,1.83.24a2.32,2.32,0,0,1,2,1.73,22.47,22.47,0,0,0,1.89,4.57,2.28,2.28,0,0,1-.19,2.57,15.68,15.68,0,0,1-1.13,1.45.57.57,0,0,0,0,.88c.82.93,1.69,1.79,2.58,2.63.52.49.92.62,1.45.06a8.8,8.8,0,0,1,1.07-.84,2.42,2.42,0,0,1,2.78-.23,21.56,21.56,0,0,0,4.5,1.86,2.34,2.34,0,0,1,1.74,2.08c.06.48.15,1,.17,1.44s.2.85.83.88c1,0,2.08.08,3.13,0,1.21-.06,1.2-.07,1.35-1.3,0-.32.09-.63.13-1a2.37,2.37,0,0,1,1.81-2.2,21.35,21.35,0,0,0,4.42-1.83,2.41,2.41,0,0,1,2.78.21c.45.34.91.67,1.33,1a.58.58,0,0,0,.94,0c.68-.68,1.42-1.3,2.08-2C78,75.61,78,75.59,77,74.3c-.16-.21-.33-.42-.48-.64a2.3,2.3,0,0,1-.2-2.57,23.6,23.6,0,0,0,1.92-4.65,2.24,2.24,0,0,1,1.89-1.64c.65-.11,1.32-.21,2-.27.33,0,.47-.17.48-.5,0-.88.12-1.76.08-2.64-.09-1.94-.11-2-2.06-2.2A2.67,2.67,0,0,1,78.09,57a13,13,0,0,0-1.48-3.62,2.79,2.79,0,0,1,.33-3.72c.27-.3.5-.63.74-1Z"/><path class="cls-2" d="M61.64,50.14A11.88,11.88,0,1,0,73.51,62,11.87,11.87,0,0,0,61.64,50.14Zm0,20.4A8.53,8.53,0,1,1,70.17,62,8.53,8.53,0,0,1,61.64,70.54Z"/><path class="cls-3" d="M2.37,33.74q0-10.14,0-20.29A5.15,5.15,0,0,1,7.77,8c1.4,0,2.8,0,4.19,0,.56,0,.77-.14.72-.72a5.62,5.62,0,0,1,.65-3.26c1.12-2,2.94-2.58,5-2.79C26.14.51,33,2.82,39.12,7.48c1,.78,1,.77,2.05,0A29.72,29.72,0,0,1,55.26,1.38a26.41,26.41,0,0,1,8.18.12,5.21,5.21,0,0,1,4.19,5.27C67.66,8,67.66,8,68.92,8s2.47,0,3.71,0a5,5,0,0,1,5.29,5.18c0,6.81,0,13.63,0,20.45a1.63,1.63,0,0,1-1.72,1.8,1.66,1.66,0,0,1-1.69-1.83q0-9.91,0-19.81c0-1.88-.51-2.39-2.39-2.39-1.24,0-2.47,0-3.71,0-.63,0-.81.16-.8.8,0,5.36,0,10.73,0,16.1,0,.62,0,1.24,0,1.85a1.72,1.72,0,1,1-3.42-.05V11.29c0-1.48,0-3,0-4.43a1.81,1.81,0,0,0-1.75-2,24,24,0,0,0-17,3.78c-1,.66-2,1.39-3,2.15a1.51,1.51,0,0,0-.64,1.35q0,13.94,0,27.86c0,1.52-.58,2.35-1.67,2.38s-1.75-.84-1.75-2.39c0-9.28,0-18.57,0-27.86a1.52,1.52,0,0,0-.66-1.34,26.64,26.64,0,0,0-13.31-6,22.13,22.13,0,0,0-6.65.08,1.82,1.82,0,0,0-1.74,2q0,19.89,0,39.78c0,1.44.79,2.14,2.29,2a27.17,27.17,0,0,1,13.17,1.82,18.52,18.52,0,0,1,1.76.79,1.7,1.7,0,0,1,1,2.32,1.73,1.73,0,0,1-2.38.81,31.54,31.54,0,0,0-4.59-1.68A24.15,24.15,0,0,0,18.6,52c-3.69.43-6-2.56-6-5.73.11-11.32,0-22.65.06-34,0-.75-.21-.93-.93-.9-1.31.05-2.63,0-3.94,0a1.82,1.82,0,0,0-2,2.05V54.07c0,1.41.62,2,2,2H31.31a1.75,1.75,0,1,1,0,3.48c-7.91,0-15.83,0-23.75,0a5.07,5.07,0,0,1-5.21-5.36Q2.35,44,2.37,33.74Z"/></svg>