<svg id="Layer_1" data-name="Layer 1" xmlns="http://www.w3.org/2000/svg" xmlns:xlink="http://www.w3.org/1999/xlink" viewBox="0 0 85.04 85.04"><defs><style>.cls-1{fill:url(#linear-gradient);}.cls-2{fill:url(#linear-gradient-2);}.cls-3{fill:url(#linear-gradient-3);}.cls-4{fill:url(#linear-gradient-4);}.cls-5{fill:url(#linear-gradient-5);}.cls-6{fill:url(#linear-gradient-6);}.cls-7{fill:url(#linear-gradient-7);}.cls-8{fill:url(#linear-gradient-8);}.cls-9{fill:url(#linear-gradient-9);}</style><linearGradient id="linear-gradient" x1="11.26" y1="19.56" x2="71.83" y2="71.17" gradientUnits="userSpaceOnUse"><stop offset="0" stop-color="#a9088e"/><stop offset="0.12" stop-color="#9f098d"/><stop offset="0.31" stop-color="#850d8a"/><stop offset="0.56" stop-color="#5a1286"/><stop offset="0.86" stop-color="#1f197f"/><stop offset="1" stop-color="#001d7c"/></linearGradient><linearGradient id="linear-gradient-2" x1="33.13" y1="9.25" x2="54.84" y2="27.75" xlink:href="#linear-gradient"/><linearGradient id="linear-gradient-3" x1="39.53" y1="18.75" x2="55.5" y2="32.35" xlink:href="#linear-gradient"/><linearGradient id="linear-gradient-4" x1="30.15" y1="34" x2="43.59" y2="45.45" xlink:href="#linear-gradient"/><linearGradient id="linear-gradient-5" x1="28.38" y1="29" x2="36.93" y2="36.28" xlink:href="#linear-gradient"/><linearGradient id="linear-gradient-6" x1="44.76" y1="29.68" x2="51.69" y2="35.59" xlink:href="#linear-gradient"/><linearGradient id="linear-gradient-7" x1="26.59" y1="23.99" x2="30.26" y2="27.12" xlink:href="#linear-gradient"/><linearGradient id="linear-gradient-8" x1="6.46" y1="56.95" x2="9.26" y2="59.34" xlink:href="#linear-gradient"/><linearGradient id="linear-gradient-9" x1="6.47" y1="71.12" x2="9.25" y2="73.49" xlink:href="#linear-gradient"/></defs><g id="a2BxRc.tif"><path class="cls-1" d="M85,22.65C79.79,27,75.31,32.21,70.39,36.92A2.74,2.74,0,0,0,69.5,39v17.1c2.58-1.44,4.69-2.55,6.74-3.78,2.45-1.45,4.67-1.34,6.48.93,1.66,2.09,1.14,4.52-1.45,6.62C71.63,67.62,62,75.32,52.3,83.08a8,8,0,0,1-8.06,1.34c-8.49-2.79-17-5.41-25.52-8.2-1.78-.59-3-.87-3.94,1.27a3.44,3.44,0,0,1-3.33,1.81c-10.6.26-11.75.79-11.4-10C.2,64.87,0,60.45.1,56c0-3.37,1.53-4.84,4.85-4.92,2-.06,4,0,6,0a4.24,4.24,0,0,1,3.78,1.65c.61.84,1.11,1.56,2.38,1a2.37,2.37,0,0,0,1.46-2.62c0-6.19,0-12.38,0-18.57s.05-12.6,0-18.9a6.33,6.33,0,0,1,2.08-5C23.54,5.86,26.39,3,29.28.08H67.12c2,1.85,2.49,4.15,2.4,6.8-.14,4.65,0,9.3,0,14.71,1.25-1.12,1.81-1.61,2.34-2.12,6.6-6.4,5.38-7.86,13.22.53Zm-18.47,19-.8-.35C62.43,46.21,57.43,48,52,48.19c-7.72.32-15.47.09-23.21,0-1.21,0-3.08.47-3-1.55.07-1.68,1.76-1.31,2.92-1.32,6.63,0,13.26-.06,19.9,0,1.64,0,2.8-.29,3.11-2.07.75-4.38,3.42-7.5,6.59-10.37,2.29-2.08,4.34-4.42,6.61-6.52a5,5,0,0,0,1.68-4.07c-.09-5.31-.15-10.62,0-15.92.08-2.74-.85-3.66-3.61-3.61-9.07.14-18.13.06-27.2,0-4.47,0-4.47,0-4.55,4.58-.07,3.9-1.49,5.3-5.46,5.34a22.44,22.44,0,0,1-2.32,0c-1.48-.13-2.19.31-2.19,2,.06,12.26,0,24.51,0,37a20.44,20.44,0,0,1,8.08-.38Q43.13,53.66,56.83,56c1.62.28,3.25.56,4.4,2,.56.71.63,2.53,2.29,1.43,1.2-.79,3.07-.94,3.06-3C66.55,51.51,66.57,46.59,66.57,41.66ZM44.91,62.42c3.54,0,7.08,0,10.62,0,1.33,0,3.29.59,3.55-1.41.32-2.4-2-2-3.33-2.2-8.26-1.5-16.6-2.61-24.81-4.35-4.91-1-9.12.08-13.4,2.12a2.85,2.85,0,0,0-1.93,3c.1,3.53.13,7.08,0,10.61a2.43,2.43,0,0,0,2,2.8q13.61,4.23,27.14,8.66a6.22,6.22,0,0,0,6.42-1.32c6.16-5,12.41-10,18.62-15q4.78-3.82,9.58-7.67c.91-.73,1.73-1.63.89-2.8-.73-1-1.78-.6-2.7-.11-.58.31-1.15.65-1.73,1C68,60.24,60,64.59,52.25,69.2,49.19,71,46.67,71.14,43.73,69c-3.1-2.22-6.23-4.68-10.53-3.88-.87.16-1.89,0-2-1.24-.08-1.45,1-1.48,2.06-1.48C37.17,62.42,41,62.43,44.91,62.42Zm-32.16,3h0c0-1.66,0-3.31,0-5C12.55,53.21,14.28,54,6,53.83c-2.58,0-3.23,1.07-3.17,3.38.11,4.08,0,8.17,0,12.26.09,8.1-1.2,6.89,7.34,7,2.13,0,2.64-.93,2.58-2.82C12.68,70.93,12.75,68.17,12.75,65.41ZM74.29,28.67a34.89,34.89,0,0,0-3.63-3c-1.23-.77-1.66.69-2.27,1.28-3.33,3.21-6.44,6.64-9.88,9.72-2,1.77-.84,2.63.37,3.87s1.95,2.16,3.6.35c3.18-3.49,6.65-6.72,10-10.08C73,30.3,73.43,29.69,74.29,28.67Zm7.59-7.77c-1.12-1.13-2-2.76-3.63-3.35-.71-.26-1.88.95-1.59,1.55a6.67,6.67,0,0,0,3.62,3.48C80.9,22.81,81.51,21.88,81.88,20.9Zm-7.64.47c-.78.49-2,1.05-1.56,1.82a6.2,6.2,0,0,0,3.67,3.37c.65.18,1.63-.9,1.38-1.48A10,10,0,0,0,74.24,21.37ZM43.83,65.31c4.23,3.3,5.14,3.26,8.16,0Zm-15.56-60c-1.7,1.49-3.32,2.53-4.2,4.52C28.44,10.11,28.54,10,28.27,5.34Z"/><path class="cls-2" d="M43.9,19.94H28.35c-1.08,0-2.46.2-2.55-1.36s1.37-1.44,2.4-1.44q15.72,0,31.43,0c1,0,2.56-.23,2.57,1.3,0,1.74-1.58,1.49-2.75,1.5Z"/><path class="cls-3" d="M47.39,27c-3.65,0-7.3,0-11,0-1,0-2.22-.14-2.25-1.4s1.11-1.48,2.18-1.48H58.59c1.06,0,2.2.15,2.23,1.41S59.72,27,58.67,27c-3.76,0-7.52,0-11.28,0Z"/><path class="cls-4" d="M36.92,38.35c3,0,6,0,8.93,0,1,0,2.18-.07,2.11,1.41s-1.18,1.4-2.2,1.4H27.89c-1.05,0-2.12-.15-2.11-1.49S27,38.39,28,38.38c3,0,6,0,8.94,0Z"/><path class="cls-5" d="M32.64,31.27h5.25c1,0,1.77.4,1.69,1.51-.07.9-.79,1.23-1.65,1.23H27.43c-1,0-1.78-.33-1.68-1.5.09-.92.76-1.24,1.63-1.23C29.13,31.28,30.88,31.27,32.64,31.27Z"/><path class="cls-6" d="M47.91,34c-1.32,0-2.65.06-4,0a1.23,1.23,0,0,1-1.25-1.28,1.2,1.2,0,0,1,1.21-1.31c2.87-.07,5.74-.07,8.61,0a1.22,1.22,0,0,1,1.24,1.29,1.2,1.2,0,0,1-1.2,1.31C51,34,49.46,34,47.91,34Z"/><path class="cls-7" d="M28.32,27.05c-1.08-.1-2.49.09-2.55-1.37-.06-1.71,1.44-1.57,2.62-1.57s2.75-.16,2.71,1.48S29.45,26.94,28.32,27.05Z"/><path class="cls-8" d="M9.93,57.9c-.07,1.28-.88,1.59-1.78,1.65s-2.09,0-2.21-1.33c-.1-1.12.78-1.44,1.71-1.52A2,2,0,0,1,9.93,57.9Z"/><path class="cls-9" d="M9.9,72.33c-.26,1.26-1.17,1.42-2.21,1.39S5.94,73.38,6,72.28C6,70.86,7.13,71,8.08,71S9.8,71.22,9.9,72.33Z"/></g></svg>