<svg id="Layer_1" data-name="Layer 1" xmlns="http://www.w3.org/2000/svg" xmlns:xlink="http://www.w3.org/1999/xlink" viewBox="0 0 85.04 85.04"><defs><style>.cls-1,.cls-2,.cls-3,.cls-4,.cls-5{fill:none;stroke-miterlimit:10;stroke-width:3px;}.cls-1{stroke:url(#linear-gradient);}.cls-2{stroke:url(#linear-gradient-2);}.cls-3{stroke:url(#linear-gradient-3);}.cls-4{stroke:url(#linear-gradient-4);}.cls-5{stroke:url(#linear-gradient-5);}</style><linearGradient id="linear-gradient" x1="14.62" y1="19.67" x2="74.83" y2="70.98" gradientUnits="userSpaceOnUse"><stop offset="0" stop-color="#a9088e"/><stop offset="1" stop-color="#001d7c"/></linearGradient><linearGradient id="linear-gradient-2" x1="27.16" y1="72.2" x2="39.08" y2="82.36" xlink:href="#linear-gradient"/><linearGradient id="linear-gradient-3" x1="45.93" y1="72.21" x2="57.85" y2="82.36" xlink:href="#linear-gradient"/><linearGradient id="linear-gradient-4" x1="8.38" y1="72.21" x2="20.29" y2="82.36" xlink:href="#linear-gradient"/><linearGradient id="linear-gradient-5" x1="64.71" y1="72.19" x2="76.64" y2="82.36" xlink:href="#linear-gradient"/></defs><path class="cls-1" d="M81.7,60.59a5.68,5.68,0,0,1-5,2.17q-33.51-.06-67,0c-1.62,0-3.25,0-4.32-1.54-1.57-2.25,0-5,3.09-5.19,3.69-.18,7.41-.17,11.11,0,2.34.1,3-.2,2.86-3-.39-8.9-.16-17.82-.16-26.73,0-3.41,0-6.81,0-10.22,0-2,.42-4,2.08-5.42a5,5,0,0,1,5-1.27c1.31.51.55,2.33.57,3.56,0,2,0,3.67-1.53,5.61C27,20.28,27.17,23.45,27,26c-.12,1.78,1.61,1.64,2.69,1.42,2.17-.43,5.42,1.6,6.32-1.34.74-2.41-.06-5.47-1.27-7.85-1.8-3.56-1.8-11,.71-14.07C38.68.26,43.18,1.57,47.22,1.92c3,.25,4.73,2.47,5,5.52.13,1.3.75,1.73,2,1.66.8,0,1.6,0,2.4,0,5.48.11,7.6,2.22,7.59,7.73,0,12.52,0,25-.19,37.56,0,1.66.65,1.54,1.66,1.54,3.71,0,7.41.06,11.12,0a5.35,5.35,0,0,1,4.91,2.27ZM53.46,48.28h0c0,1.9,0,3.8,0,5.7,0,1.07,0,2,1.51,2s2-.49,1.94-1.92c-.07-3.9.13-7.82-.1-11.7-.34-5.7-4.1-9.42-9.81-9.8a65.93,65.93,0,0,0-9,0c-5.69.41-9.38,4.2-9.67,9.93-.19,3.79,0,7.6-.07,11.4,0,1.26.17,2.09,1.76,2.09s1.71-.9,1.7-2.12c0-3.7-.09-7.4,0-11.1.15-4.17,2.66-6.65,6.84-6.81,2.69-.11,5.4-.12,8.1,0a6.58,6.58,0,0,1,6.73,6.64C53.56,44.47,53.46,46.38,53.46,48.28ZM43.08,9.1c1.2,0,2.39.06,3.58,0,.81-.06,2,.47,2.29-.72a2.47,2.47,0,0,0-1.57-2.92,13,13,0,0,0-8.46,0,2.47,2.47,0,0,0-1.53,2.69c.2,1.48,1.54.82,2.42.91C40.89,9.18,42,9.1,43.08,9.1Z"/><path class="cls-2" d="M33.26,83.62a6.48,6.48,0,0,1-6.54-6.11A6.41,6.41,0,0,1,32.8,71a6.25,6.25,0,0,1,6.63,6.23A6.31,6.31,0,0,1,33.26,83.62Z"/><path class="cls-3" d="M52,83.63a6.32,6.32,0,0,1-6.4-6.18A6.22,6.22,0,0,1,51.65,71a6.37,6.37,0,0,1,6.64,6.29A6.5,6.5,0,0,1,52,83.63Z"/><path class="cls-4" d="M14.21,71a6.31,6.31,0,0,1,6.48,6.08,6.42,6.42,0,0,1-6.37,6.56A6.33,6.33,0,0,1,8,77.34,6.24,6.24,0,0,1,14.21,71Z"/><path class="cls-5" d="M70.52,83.63a6.45,6.45,0,0,1-6.21-6.4A6.32,6.32,0,0,1,71,71a6.19,6.19,0,0,1,6,6.52A6.29,6.29,0,0,1,70.52,83.63Z"/></svg>