<svg id="Layer_1" data-name="Layer 1" xmlns="http://www.w3.org/2000/svg" xmlns:xlink="http://www.w3.org/1999/xlink" viewBox="0 0 85.04 85.04"><defs><style>.cls-1,.cls-2,.cls-3,.cls-4,.cls-5,.cls-6{fill:none;stroke-miterlimit:10;stroke-width:3px;}.cls-1{stroke:url(#linear-gradient);}.cls-2{stroke:url(#linear-gradient-2);}.cls-3{stroke:url(#linear-gradient-3);}.cls-4{stroke:url(#linear-gradient-4);}.cls-5{stroke:url(#linear-gradient-5);}.cls-6{stroke:url(#linear-gradient-6);}</style><linearGradient id="linear-gradient" x1="8.61" y1="21.28" x2="30.16" y2="39.64" gradientUnits="userSpaceOnUse"><stop offset="0" stop-color="#a9088e"/><stop offset="1" stop-color="#001d7c"/></linearGradient><linearGradient id="linear-gradient-2" x1="51.98" y1="52.11" x2="75.33" y2="72.01" xlink:href="#linear-gradient"/><linearGradient id="linear-gradient-3" x1="32.24" y1="30.6" x2="43.05" y2="39.81" xlink:href="#linear-gradient"/><linearGradient id="linear-gradient-4" x1="11.82" y1="68.69" x2="26.73" y2="81.39" xlink:href="#linear-gradient"/><linearGradient id="linear-gradient-5" x1="20.75" y1="21" x2="28.74" y2="27.8" xlink:href="#linear-gradient"/><linearGradient id="linear-gradient-6" x1="39.92" y1="34.9" x2="60.08" y2="52.07" xlink:href="#linear-gradient"/></defs><path class="cls-1" d="M1.94,45.33c-.49,1.19.27,2.15,1.24,3.08a59,59,0,0,1,4.73,4.76c1.55,1.87,2.6,1.68,4.26,0q14.9-15.11,30-30c1.48-1.46,1.76-2.36.1-3.93-4.28-4-8.46-8.19-12.48-12.48-1.74-1.85-2.72-1.43-4.28.17C19.66,13,13.67,18.85,7.72,24.78A6.36,6.36,0,0,0,5.6,27.84C4.39,33.58,3.2,39.33,1.94,45.33Z"/><path class="cls-2" d="M79.05,65.15c-.71-.76-1.26-1.39-1.84-2C75,61,72.93,58.72,70.66,56.64c-3.47-3.17-6.41-9.36-10.27-9s-6.9,6-10.32,9.26c-.2.19-.39.41-.6.58-1.38,1.11-1.41,2,0,3.37q7.84,7.62,15.47,15.45c1.25,1.28,2.12,1.38,3.41,0,3.09-3.24,6.32-6.36,9.48-9.54A17.48,17.48,0,0,0,79.05,65.15Z"/><path class="cls-3" d="M47.18,32.58a4.06,4.06,0,0,0-.44-.91c-2-2-3.66-4.58-6-5.67-2-.94-3.08,2.23-4.65,3.45a37,37,0,0,0-3.29,3.22c-5.53,5.55-5.47,5.48.34,10.81,1.55,1.42,2.4,1.22,3.71-.15,2.88-3,5.9-5.94,8.84-8.92C46.23,33.83,46.7,33.15,47.18,32.58Z"/><path class="cls-4" d="M11.88,81.45c4.91-1.3,9-2.22,12.94-3.51,1.56-.52,5,.13,3.88-3.13s.81-7.83-4.21-9.24c-7.79-2.19-7.79-2.21-9.94,5.78C13.72,74.41,12.93,77.48,11.88,81.45Z"/><path class="cls-5" d="M29.27,24.64c-1.54,1.39-2.58,4.06-4.55,3.8-1.72-.23-4.12-2.26-3.92-4.18.19-1.74,2.3-4.13,4.2-3.92C26.72,20.52,28.22,22.69,29.27,24.64Z"/><path class="cls-6" d="M30.56,75.14c17.88-17.8,34.71-34.58,51.59-51.31,1.48-1.47.79-2.33-.32-3.41C79,17.68,76.13,15,73.55,12.07c-1.94-2.21-3.13-2.09-5.19,0-15.53,15.74-31.2,31.34-46.81,47-.84.84-2.08,1.46-2.24,3.48C27.6,61.82,31.16,66.17,30.56,75.14Z"/></svg>