<svg id="Layer_1" data-name="Layer 1" xmlns="http://www.w3.org/2000/svg" xmlns:xlink="http://www.w3.org/1999/xlink" viewBox="0 0 85.04 85.04"><defs><style>.cls-1,.cls-2,.cls-3{fill:none;stroke-miterlimit:10;stroke-width:3px;}.cls-1{stroke:url(#linear-gradient);}.cls-2{stroke:url(#linear-gradient-2);}.cls-3{stroke:url(#linear-gradient-3);}</style><linearGradient id="linear-gradient" x1="5.79" y1="1.9" x2="79.95" y2="65.09" gradientUnits="userSpaceOnUse"><stop offset="0" stop-color="#a9088e"/><stop offset="1" stop-color="#001d7c"/></linearGradient><linearGradient id="linear-gradient-2" x1="28.98" y1="64.1" x2="56.05" y2="87.17" xlink:href="#linear-gradient"/><linearGradient id="linear-gradient-3" x1="21.65" y1="30.01" x2="37.96" y2="43.91" xlink:href="#linear-gradient"/></defs><path class="cls-1" d="M83.62,9c0-1.64-.33-2-2-2q-39,.09-78,0C1.94,8.16,1.4,9.66,1.41,11.69c.08,14.76,0,29.52.05,44.28,0,3.19.45,3.86,3.44,4.38A4,4,0,0,1,5.37,60a4.55,4.55,0,0,1,.72-.3,3.16,3.16,0,0,0,.77-.41l.08-.07a7.48,7.48,0,0,1,1.12-1.06c2.74-2.8,5.42-5.68,8.34-8.29,2.22-2,3-3.47,1.08-6.48-3.53-5.5-1.76-12.94,3.37-17.24A14,14,0,0,1,42.27,43.41a13.68,13.68,0,0,1-16.17,7,4.1,4.1,0,0,0-5,1.3c-2.54,2.73-5.27,5.29-7.9,7.9.54,1,1.37.63,2,.63,21.44,0,42.88,0,64.31.05a4.47,4.47,0,0,0,4-1.76C83.57,42,83.54,25.51,83.62,9ZM52.42,48.87a2.24,2.24,0,0,1-2.34,2.45,2.12,2.12,0,0,1-2.27-2.22c-.08-3.17-.08-6.35,0-9.52a2.11,2.11,0,0,1,2.3-2.18,2.15,2.15,0,0,1,2.28,2.22c.07,1.63,0,3.26,0,4.89h0C52.43,46,52.46,47.42,52.42,48.87ZM60,47.69c0,1.76-.16,3.57-2.34,3.61-2.38,0-2.51-1.9-2.51-3.73,0-3.83,0-7.66,0-11.48,0-3.65,0-7.29,0-10.94,0-1.83.12-3.76,2.51-3.74C59.91,21.43,60,23.25,60,25Q60,36.34,60,47.69Zm7.66.51c0,1.65-.49,3-2.31,3.11-2,.06-2.53-1.43-2.53-3.17V39.39c0-2.82,0-5.65,0-8.47,0-1.58.36-3,2.31-3.07S67.71,29.23,67.7,31Q67.69,39.59,67.7,48.2Zm7.64.47c0,1.58-.82,2.68-2.47,2.66a2.31,2.31,0,0,1-2.31-2.55c0-4-.06-8,0-12a2.26,2.26,0,0,1,2.34-2.5c1.68,0,2.42,1.07,2.44,2.67,0,1.91,0,3.82,0,5.73S75.38,46.66,75.34,48.67Z"/><path class="cls-2" d="M42.55,64.62c1.82,0,3.65.08,5.47,0s2.45.6,2.14,2.23c-.52,2.72.75,3.58,3.28,3.93A30,30,0,0,1,61,73.11c1.52.64,2.68,1.47,2,3.24s-2.24,1.88-3.84,1.23A43.73,43.73,0,0,0,30.26,76c-1.66.47-3.27,1.11-4.9,1.7s-2.74.16-3.31-1.39.28-2.47,1.56-3a36.61,36.61,0,0,1,9.12-2.8c1.67-.26,2.42-1,2.12-2.66-.46-2.68.74-3.58,3.32-3.27A37.62,37.62,0,0,0,42.55,64.62Z"/><path class="cls-3" d="M20.62,37.06a9.08,9.08,0,0,1,9.11-9.26,9.26,9.26,0,0,1,9.38,9.06,9.4,9.4,0,0,1-9.19,9.32A9.21,9.21,0,0,1,20.62,37.06Z"/></svg>