<svg id="Layer_1" data-name="Layer 1" xmlns="http://www.w3.org/2000/svg" xmlns:xlink="http://www.w3.org/1999/xlink" viewBox="0 0 85.04 85.04"><defs><style>.cls-1,.cls-2{fill:none;stroke-miterlimit:10;stroke-width:3px;}.cls-1{stroke:url(#linear-gradient);}.cls-2{stroke:url(#linear-gradient-2);}</style><linearGradient id="linear-gradient" x1="18.96" y1="16.96" x2="53.46" y2="46.35" gradientUnits="userSpaceOnUse"><stop offset="0" stop-color="#a9088e"/><stop offset="1" stop-color="#001d7c"/></linearGradient><linearGradient id="linear-gradient-2" x1="31.64" y1="38.68" x2="66.17" y2="68.1" xlink:href="#linear-gradient"/></defs><path class="cls-1" d="M4.4,43.79C6.15,39,7.58,34.06,10.52,29.67c7.37-11,18-17.24,31.51-19.13,2-.28,2.87-.79,2.57-2.7a7.89,7.89,0,0,1,0-1.61c.09-1.93.73-3.6,2.72-4.47s3.59,0,5,1.16C54.29,4.54,56.11,6.31,58,8c2.91,2.72,5.85,5.39,8.66,8.19,4.08,4.05,4.15,8.19.1,12.16-4.41,4.32-9,8.51-13.49,12.72-1.67,1.56-3.63,2.83-6.08,1.74-2.25-1-2.81-3.1-2.51-5.19.44-3-.94-3.84-3.84-4Q22.37,32.78,10.43,46c-1.81,2-3.45,3.57-6,1Z"/><path class="cls-2" d="M35.08,83.62c-6.61-4.6-12-10.4-17.57-16-3.09-3.12-3-7,.16-10.17,4.78-4.86,9.87-9.45,14.89-14.09a4.81,4.81,0,0,1,5.29-1.27,4.25,4.25,0,0,1,2.61,4.82c-.6,3.74,1.48,4.42,4.73,4.51,11.48.29,21-3.57,28.78-11.5.54-.55,1-1.16,1.52-1.72,1-1.13,2.2-2,3.81-1.21,1.38.72,1.47,2,1.23,3.38a39.27,39.27,0,0,1-8.78,18.87C64.35,68,54.6,73.06,42.84,74.49c-2,.24-2.49.94-2.31,2.6a6.8,6.8,0,0,1-2.72,6.53Z"/></svg>