<svg id="Layer_1" data-name="Layer 1" xmlns="http://www.w3.org/2000/svg" xmlns:xlink="http://www.w3.org/1999/xlink" viewBox="0 0 85.04 85.04"><defs><style>.cls-1,.cls-2{fill:none;stroke-miterlimit:10;stroke-width:3px;}.cls-1{stroke:url(#linear-gradient);}.cls-2{stroke:url(#linear-gradient-2);}</style><linearGradient id="linear-gradient" x1="20.32" y1="11.6" x2="63.45" y2="48.34" gradientUnits="userSpaceOnUse"><stop offset="0" stop-color="#a9088e"/><stop offset="1" stop-color="#001d7c"/></linearGradient><linearGradient id="linear-gradient-2" x1="34.04" y1="66.71" x2="51.03" y2="81.19" xlink:href="#linear-gradient"/></defs><g id="BgL2Vw.tif"><path class="cls-1" d="M67.57,28.38c-.28,1.32-.38,2.68-.71,4a25.87,25.87,0,0,1-9,14c-1.75,1.45-3.46,2.95-5.21,4.4a1.17,1.17,0,0,0-.46,1c0,2.35,0,4.71,0,7.06,0,.54-.12.73-.7.73q-8.94,0-17.88,0c-.57,0-.7-.17-.7-.72,0-5.33,0-10.65,0-16a1.25,1.25,0,0,1,.52-1.07c4.08-3.45,8.14-6.93,12.23-10.38a6.75,6.75,0,0,0,2.56-3.94,5.77,5.77,0,1,0-11.45-1.25,19.25,19.25,0,0,0,0,2c.06.65-.28.65-.76.65H19.83c-.61,0-1.23,0-1.84,0-.35,0-.45-.1-.47-.45a25.05,25.05,0,0,1,49.5-7c.25,1.2.37,2.42.55,3.63Z"/><path class="cls-2" d="M41.27,83.62a11,11,0,0,1-4.57-2,9.27,9.27,0,0,1-3.5-9.77,9.09,9.09,0,0,1,7.52-7.31A9.62,9.62,0,1,1,44.2,83.48c-.13,0-.25.1-.37.14Z"/></g></svg>