<svg id="Layer_1" data-name="Layer 1" xmlns="http://www.w3.org/2000/svg" xmlns:xlink="http://www.w3.org/1999/xlink" viewBox="0 0 85.04 85.04"><defs><style>.cls-1,.cls-2{fill:none;stroke-miterlimit:10;stroke-width:3px;}.cls-1{stroke:url(#linear-gradient);}.cls-2{stroke:url(#linear-gradient-2);}</style><linearGradient id="linear-gradient" x1="11.12" y1="35.11" x2="52.84" y2="70.66" gradientUnits="userSpaceOnUse"><stop offset="0" stop-color="#a9088e"/><stop offset="1" stop-color="#001d7c"/></linearGradient><linearGradient id="linear-gradient-2" x1="31.81" y1="13.96" x2="74.19" y2="50.07" xlink:href="#linear-gradient"/></defs><g id="cFZXpx.tif"><path class="cls-1" d="M23.9,83.56C18,82.16,12.48,80,8.32,75.32-.58,65.3-1,51.64,7.73,41.4c4.77-5.6,9.72-11.18,16-15.21,10.89-7,25.81-4.11,33.63,6.21.88,1.15,1.08,1.84-.07,2.87-1.82,1.65-3.46,3.51-5.27,5.17-2.54,2.31-4.74,2.4-7.53.49-6.62-4.57-10.58-4.2-16.33,1.54-2.58,2.58-5.19,5.11-7.71,7.73-4.37,4.52-4.73,10.17-1,14.41s9,4.61,14.11,1a2.64,2.64,0,0,1,2.89-.48,29,29,0,0,0,17,1.8c-3,6.17-13.34,13.54-23.14,16.65Z"/><path class="cls-2" d="M83.62,30.26c-2.8,13.2-12.53,21.22-22.53,28.45-10.3,7.44-25.56,4.08-33.31-6.06-1-1.23-1.22-2,.1-3.11a32.73,32.73,0,0,0,2.52-2.48C36,41.52,36,41.52,42.75,45.62a9.81,9.81,0,0,0,11.91-1.1c3.78-3.47,7.45-7.09,10.88-10.89a9.8,9.8,0,0,0-.05-13.44c-3.57-3.94-9.11-4.45-13.64-1.19-1,.69-1.72,1.54-3.1.88a27.5,27.5,0,0,0-8.65-2.26,30.7,30.7,0,0,0-9.37.51c7-6.94,12.53-14.44,22.35-16.21C66.94-.57,79.52,7.63,83,21.39c.21.82.45,1.63.67,2.45Z"/></g></svg>