<svg id="Layer_1" data-name="Layer 1" xmlns="http://www.w3.org/2000/svg" xmlns:xlink="http://www.w3.org/1999/xlink" viewBox="0 0 85.04 85.04"><defs><style>.cls-1{fill:url(#linear-gradient);}.cls-2{fill:url(#linear-gradient-2);}.cls-3{fill:url(#linear-gradient-3);}.cls-4{fill:url(#linear-gradient-4);}</style><linearGradient id="linear-gradient" x1="10.85" y1="15.32" x2="74.43" y2="69.49" gradientUnits="userSpaceOnUse"><stop offset="0" stop-color="#a9088e"/><stop offset="0.12" stop-color="#a0098d"/><stop offset="0.31" stop-color="#860c8a"/><stop offset="0.55" stop-color="#5d1186"/><stop offset="0.83" stop-color="#251880"/><stop offset="1" stop-color="#001d7c"/></linearGradient><linearGradient id="linear-gradient-2" x1="23.46" y1="25.74" x2="53.55" y2="51.38" xlink:href="#linear-gradient"/><linearGradient id="linear-gradient-3" x1="11.45" y1="30.86" x2="38.72" y2="54.09" xlink:href="#linear-gradient"/><linearGradient id="linear-gradient-4" x1="48.21" y1="30.45" x2="74.56" y2="52.9" xlink:href="#linear-gradient"/></defs><g id="kHGcIi.tif"><path class="cls-1" d="M42.42,85c-1.41-1-2.93-1.75-4.4-2.61Q30.77,78.22,23.51,74q-8.52-4.92-17-9.83a1.35,1.35,0,0,1-.79-1.34q0-20.38,0-40.79a1.48,1.48,0,0,1,.86-1.48Q16.63,14.81,26.68,9c5-2.88,10-5.74,14.91-8.65a1.64,1.64,0,0,1,1.89,0Q54,6.45,64.62,12.56l14.14,8.17a6.65,6.65,0,0,0,.61.27V63.69l-13.76,8q-7.94,4.59-15.87,9.18c-2.4,1.39-4.8,2.8-7.2,4.2ZM75,42.4h0c0-6,0-12,0-18a1.07,1.07,0,0,0-.6-1.07c-4.59-2.63-9.18-5.3-13.77-7.95L43.2,5.3a1.17,1.17,0,0,0-1.34,0Q35.46,9,29.05,12.74,19.95,18,10.84,23.26a1.29,1.29,0,0,0-.74,1.29q0,17.88,0,35.74a1.31,1.31,0,0,0,.74,1.3c4.85,2.77,9.68,5.58,14.52,8.37Q33.67,74.78,42,79.57a.92.92,0,0,0,1.06,0c3.1-1.83,6.21-3.63,9.32-5.43q10.95-6.33,21.9-12.64A1.25,1.25,0,0,0,75,60.27C74.94,54.31,75,48.36,75,42.4Z"/><path class="cls-2" d="M31.79,42.48q0-13,0-25.92a1.18,1.18,0,0,1,.63-1.19q4.89-2.85,9.76-5.76a.9.9,0,0,1,1,0q6.24,3.69,12.5,7.36c.38.22.48.41.21.81-.69,1-1.37,2-2,3.06-.29.49-.52.54-1,.24-3.24-2-6.51-3.92-9.76-5.89a.84.84,0,0,0-1,0c-1.81,1-3.63,2-5.45,3a.86.86,0,0,0-.52.86q0,9.91,0,19.82c0,.61.27.7.78.7H51.67c1,0,1,0,1,1,0,1.24,0,2.48,0,3.72,0,.61-.19.8-.81.8-4.92,0-9.84,0-14.75,0-.88,0-.89,0-.89.86V71.53c0,.34-.14.39-.41.22q-1.86-1.22-3.74-2.41a.73.73,0,0,1-.27-.7V42.48Z"/><path class="cls-3" d="M17.8,40V60c0,1.18.1,1.27-1,.6-.81-.48-1.61-1-2.44-1.4a.9.9,0,0,1-.46-.91c0-2.09,0-4.19,0-6.28,0-7.79,0-15.58,0-23.36a1.37,1.37,0,0,1,.82-1.39c.94-.48,1.85-1,2.75-1.57.44-.27.6-.13.72.3q1,3.42,2,6.84c1,3.28,1.91,6.56,2.89,9.9a1.08,1.08,0,0,0,.1-.66c0-6.59,0-13.18,0-19.76A1.25,1.25,0,0,1,23.85,21c1.22-.64,2.4-1.36,3.59-2.06.38-.23.51-.14.48.28,0,.12,0,.24,0,.37V66c0,1,0,1-.9.52-.65-.37-1.29-.76-1.95-1.12a1.37,1.37,0,0,1-.71-.93c-1-3.93-2.05-7.86-3.09-11.79L17.88,39.93Z"/><path class="cls-4" d="M61.56,45.77q0-9.33,0-18.66a1.31,1.31,0,0,0-.69-1.28c-1.54-.94-3-1.95-4.58-2.91-.45-.28-.49-.53-.2-1,.62-.91,1.19-1.85,1.75-2.79.21-.35.38-.43.76-.19q6.78,4.32,13.59,8.6a.86.86,0,0,1,.47.84c0,1.38,0,2.77,0,4.15,0,.17.07.4-.11.51s-.37-.1-.53-.21l-5-3.39c-.15-.1-.36-.27-.47-.23s-.11.35-.11.54q0,16,0,32a1.27,1.27,0,0,1-.76,1.29c-1.14.62-2.25,1.29-3.38,1.94-.72.42-.77.39-.77-.47V45.77Z"/></g></svg>