<svg id="Layer_1" data-name="Layer 1" xmlns="http://www.w3.org/2000/svg" xmlns:xlink="http://www.w3.org/1999/xlink" viewBox="0 0 85.04 85.04"><defs><style>.cls-1{fill:url(#linear-gradient);}.cls-2{fill:url(#linear-gradient-2);}</style><linearGradient id="linear-gradient" x1="12.23" y1="5.24" x2="68.4" y2="53.09" gradientUnits="userSpaceOnUse"><stop offset="0" stop-color="#a9088e"/><stop offset="0.12" stop-color="#9f098d"/><stop offset="0.32" stop-color="#830d8a"/><stop offset="0.58" stop-color="#561285"/><stop offset="0.89" stop-color="#181a7f"/><stop offset="1" stop-color="#001d7c"/></linearGradient><linearGradient id="linear-gradient-2" x1="19.07" y1="11.14" x2="61.65" y2="47.42" xlink:href="#linear-gradient"/></defs><g id="PFOlJO.tif"><path class="cls-1" d="M80.36,20.61C71.56,37.77,61.87,54.44,52.5,71.29c-4.84,8.69-15.19,8.59-20.1-.11Q19.27,47.92,6.45,24.47c-4.61-8.44.14-16.92,9.74-17,17.54-.24,35.09-.1,52.63,0,6.16,0,9.76,3.45,11.54,9.1ZM42.43,11.73c-8.58,0-17.15,0-25.73,0-6.42,0-9.41,5-6.3,10.69Q23.21,45.71,36.18,68.9c3.29,5.87,9.37,5.82,12.67-.09Q61.74,45.73,74.49,22.59c3.21-5.84.27-10.82-6.33-10.85C59.58,11.7,51,11.73,42.43,11.73Z"/><path class="cls-2" d="M42.6,16.14q12.12,0,24.24,0c4.74,0,5.45,1.15,3.23,5.18Q57.73,43.66,45.35,66c-.65,1.17-1.11,2.63-2.84,2.65s-2.23-1.4-2.89-2.58Q27.2,43.58,14.79,21.11c-2-3.72-1.31-4.95,3-5C26.06,16.12,34.33,16.14,42.6,16.14ZM65.18,21a3.93,3.93,0,0,0-.91-.35c-14.18,0-28.36,0-42.53-.06-2.61,0-1.52,1.19-.92,2.27Q31.14,41.57,41.5,60.27c.25.45.37,1.19,1.37,1Z"/></g></svg>