<svg xmlns="http://www.w3.org/2000/svg" xmlns:xlink="http://www.w3.org/1999/xlink" viewBox="0 0 141.73 141.73"><defs><style>.cls-1,.cls-4{fill:#fff;}.cls-1{opacity:0.4;}.cls-2{fill:none;stroke:#fff;stroke-miterlimit:10;}.cls-3{fill:url(#linear-gradient);}.cls-4{fill-rule:evenodd;}</style><linearGradient id="linear-gradient" x1="-0.76" y1="138.6" x2="147.83" y2="-2.31" gradientUnits="userSpaceOnUse"><stop offset="0" stop-color="#477ab9"/><stop offset="0.34" stop-color="#99378e"/><stop offset="0.75" stop-color="#de3055"/><stop offset="1" stop-color="#d6b359"/></linearGradient></defs><g id="Layer_2" data-name="Layer 2"><g id="Layer_1-2" data-name="Layer 1"><circle class="cls-1" cx="70.87" cy="70.87" r="70.87"/><circle class="cls-2" cx="70.66" cy="70.66" r="63.63"/><circle class="cls-3" cx="70.66" cy="70.87" r="58.26"/><path class="cls-4" d="M39.69,60.43c-.38.31-1.14-1,0-1.39a3,3,0,0,1,1.38-.27c.68,0-.74,1.12-1.38,1.66ZM105,34.09c-1.8,15.5-17.33,26.86-19.81,28.7C81.27,65.81,72,71,72,71a27.16,27.16,0,0,0-6.57-10.88c-4.95-4.79-11.33-7.92-13.66-8.53a37,37,0,0,1,11.9,10,37.39,37.39,0,0,1,6.2,11.71c0,.07.06.17.12.11.71-.61,1.68-1.37,1.66-1.38C79,66.16,96.57,66.37,105,48.89c3.45-7.17.15-15.89,0-14.8ZM53,104.69a4.65,4.65,0,0,0-2.2-.75,14.22,14.22,0,0,1,6,.6,11.19,11.19,0,0,1,2.11.94,9.24,9.24,0,0,1,2.38,2,2.75,2.75,0,0,0,.22.26,13.26,13.26,0,0,1-3.11-.14,8,8,0,0,1-1.15-.27,9.84,9.84,0,0,1-1.59-.65,8.2,8.2,0,0,1-1.46-1c-.44-.35-.8-.69-1.23-1Zm-.14-4.11a17,17,0,0,1,9.06-.55c.21,0,.42.1.63.15a17.59,17.59,0,0,1,2.63.92,20.63,20.63,0,0,1,1.88,1c.56.31,1.08.64,1.59,1l1.52,1c.54.34,1.08.67,1.63,1a11.56,11.56,0,0,0,2.23.94l.13,0h0a18,18,0,0,1-7,.24,16.35,16.35,0,0,1-3.42-.89,12.18,12.18,0,0,1-1.47-.66l-.54-.28c-.73-.37-1.44-.68-2.12-1a23.28,23.28,0,0,0-2.91-.91,19.4,19.4,0,0,0-6.28-.52l.11-.08.25-.19a8.79,8.79,0,0,1,2.08-1.11ZM60.61,93a19.69,19.69,0,0,1,6.64-.28h.07a33.39,33.39,0,0,1,4.16.86c1.3.32,2.61.66,3.93.87.4.06.81.11,1.22.15a23.42,23.42,0,0,0,6.88-.49,16.71,16.71,0,0,0,3.14-1s-.15.35-.65.93a13,13,0,0,1-1.06,1.08,14.37,14.37,0,0,1-1.36,1.08,16.87,16.87,0,0,1-1.79,1.11,17.64,17.64,0,0,1-2.61,1.13,20.68,20.68,0,0,1-3.35.86,16.84,16.84,0,0,1-6.59-.45l-.46-.12c-1-.26-1.92-.53-2.88-.77a32.14,32.14,0,0,0-4.35-.85A17.37,17.37,0,0,0,59,97a14.25,14.25,0,0,0-2.91.35,18,18,0,0,0-3.53,1.17,18.22,18.22,0,0,0-2.09,1.12c-.39.25-.77.51-1.15.79a5.53,5.53,0,0,1,.55-.76c.24-.3.55-.67.94-1.07s.69-.7,1.11-1.08.84-.72,1.32-1.08a18.33,18.33,0,0,1,1.62-1.1A19.38,19.38,0,0,1,57,94.22,19,19,0,0,1,60.61,93ZM96.87,77.13A8.89,8.89,0,0,0,98,76.54c.16-.09.37.06.29.22l-.18.32c-.21.36-.43.71-.66,1.06s-.49.71-.76,1.06-.57.72-.87,1.06-.65.73-1,1.08-.76.73-1.16,1.07-.89.75-1.35,1.09-1.08.76-1.64,1.1a21.13,21.13,0,0,1-2.1,1.12,19.05,19.05,0,0,1-2.79,1l-.51.14a50.73,50.73,0,0,1-8.56,1.38c-1.37.12-2.74.22-4.11.31a52.78,52.78,0,0,0-8.87,1.26A38,38,0,0,0,59.56,91c-1,.37-2,.75-2.81,1.15s-1.49.74-2.15,1.12-1.2.73-1.72,1.1-1,.73-1.41,1.09a15.89,15.89,0,0,0-1.17,1.08,12.28,12.28,0,0,0-1,1.07,10.21,10.21,0,0,0-.77,1.06,4.55,4.55,0,0,0-.32.57l.27-.57c.18-.36.36-.71.56-1s.41-.72.64-1.06.47-.71.73-1.06.54-.72.82-1.06.62-.73.94-1.07.71-.73,1.07-1.08.8-.73,1.21-1.08.91-.74,1.38-1.08,1.05-.76,1.58-1.1,1.22-.76,1.83-1.11,1.44-.77,2.15-1.11c.88-.43,1.74-.81,2.56-1.14,1.16-.47,2.24-.85,3.15-1.16.56-.19,1.07-.35,1.5-.48.8-.25,1.6-.49,2.41-.71,1.68-.46,3.38-.87,5.08-1.24s3.69-.75,5.55-1.09l1.21-.22c1.91-.35,4.13-.78,6.3-1.29,1.6-.37,3.18-.77,4.59-1.21a27.12,27.12,0,0,0,3.09-1.16Zm-27.07-2c1.84-.71,3.69-1.38,5.52-2.05,6.48-2.38,13.14-4.57,19.2-7.95,13.47-7.5,16.41-19.23,16.38-18.92-2,18.09-11.62,24.94-19.1,28-1.14.47-2.22.85-3.23,1.17-1.19.37-2.26.67-3.16.91l-1.08.29c-1.79.47-3.59.86-5.4,1.25s-3.81.81-5.7,1.27c-1.51.36-3,.75-4.48,1.21-1.11.35-2.22.73-3.31,1.17-.45.18-.91.37-1.36.57l-1.22.56c-.77.37-1.51.75-2.21,1.13s-1.33.73-1.94,1.11S57.54,85.61,57,86s-1,.72-1.52,1.09-.93.72-1.35,1.09-.83.72-1.21,1.08-.75.72-1.09,1.07-.66.72-1,1.07-.59.72-.86,1.07-.53.71-.76,1.06-.47.71-.67,1.06-.41.71-.59,1.05-.36.72-.5,1-.31.73-.43,1-.26.74-.35,1c-.14.47-.22.82-.28,1v0a9.51,9.51,0,0,1,.14-1c.06-.29.13-.64.23-1s.16-.66.27-1,.2-.68.32-1,.24-.69.38-1.05.27-.69.42-1,.3-.69.47-1,.34-.69.53-1,.37-.7.58-1,.42-.71.64-1.06.46-.71.71-1.06.5-.71.77-1.06.56-.71.86-1.07.61-.71.94-1.07.67-.72,1-1.07.75-.72,1.15-1.08c.21-.19.43-.39.66-.58l.61-.5c.48-.38,1-.74,1.46-1.09s1.1-.75,1.67-1.1,1.27-.76,1.92-1.11,1.46-.77,2.21-1.12,1.68-.78,2.54-1.14,1.9-.78,2.85-1.14ZM48,76c.58-1.13,1.14-2.07,1.42-2.69a16.66,16.66,0,0,0,1.8-7.15c0-2.75,0-5.67-1.32-8.17-.11-.19,5.19,3.79,3.26,12.51a22.89,22.89,0,0,1-2,4.85c2.35-1.33,5.07-2.39,6.55-4.5,0,0,.17,0,.14.06a17.3,17.3,0,0,1-4.19,4.86l-1.12,1-.15.12c-.4.34-.84.7-1.27,1.08s-.79.71-1.17,1.08a12,12,0,0,0-1,1.07,8.24,8.24,0,0,0-.72,1.06,6.13,6.13,0,0,0-.47,1,4.7,4.7,0,0,0-.18.74,6,6,0,0,1,.3-.56,1.18,1.18,0,0,1,.11-.19,8.32,8.32,0,0,1,.79-1.06A8.1,8.1,0,0,1,50,80.08a5.37,5.37,0,0,1,1.15-.7,7.65,7.65,0,0,1,2.27-.47c.47,0,.93,0,1.3,0,.56,0,.93,0,.86.08l-1.43,1c-.53.36-1.06.72-1.57,1.1s-.92.7-1.35,1.08a14,14,0,0,0-1.1,1.08,9.51,9.51,0,0,0-.64.76,3.55,3.55,0,0,0-.23.31c-.26.35-.5.71-.73,1.06s-.43.71-.62,1-.38.72-.54,1.05-.35.74-.48,1.06-.35.82-.44,1-.1.25-.12.25,0-.16,0-.24c0-.34.05-.69.08-1s.06-.69.1-1,.09-.69.15-1,.09-.56.15-.83l0,0-.09-.17a5.73,5.73,0,0,1-.4-1,6.07,6.07,0,0,1-.21-1,7,7,0,0,1,0-1,9.12,9.12,0,0,1,.09-1c0-.35.12-.69.2-1s.19-.7.31-1,.24-.71.38-1,.3-.71.46-1,.34-.71.51-1ZM36.13,77.56a1.09,1.09,0,0,1-.52.11l-1.27,0c-1.22,0-2.88-.06-3-.13-.32-.25-.62-.51-.95-.74l-.28-.19a.87.87,0,0,1-.11-.09,1.22,1.22,0,0,1-1-.29c-1-.83-1.24-3.93-1.13-4.48s1.3-2.16,1.86-2.15h.08a1.14,1.14,0,0,1,.76.32,2.53,2.53,0,0,0,1.2-2,1.2,1.2,0,0,1,.81-1.14,9.94,9.94,0,0,0,4.53-3.92,6.45,6.45,0,0,0,.65-2.11l-1.14.85a35.17,35.17,0,0,0-3.55,3,39.69,39.69,0,0,1,2.45-3.68,34.2,34.2,0,0,0,2.38-3.58c.29-.5,2.48-.15,4.58-1.09,1-.46,2.45-1.06,2.28-2.57a5.58,5.58,0,0,0-.89-2.24c-3,1.73-5.16,4.28-7.43,6.91-.11.13,2.13-3.66,3.13-5.49a11.3,11.3,0,0,1,1.65-2.35,5.15,5.15,0,0,1-.55-2.78c.11-.93.66-1.4,1-2.2a10,10,0,0,1,.72,1.4,10.51,10.51,0,0,1,.5,1.25l.27.74a14,14,0,0,1,1.49-4.54c.13-.28,2.88,5.71,3,7.09,3.41,2.88,1.13,6.87-.94,10-1.18,1.76-2.53,3.72-2.74,5.88a2.54,2.54,0,0,0,1.71,2.67,3,3,0,0,0,3-.88c1.42-1.79,1.47-4.11,1.59-6.3a15.67,15.67,0,0,1-.43,7.92,4.41,4.41,0,0,1-4.21,2.65,6.85,6.85,0,0,0-1-.38l-.33-.09h-.06a11.58,11.58,0,0,0-3.05-.3,15.47,15.47,0,0,0-4.42.76c-.05,0,0,.11,0,.09a9.85,9.85,0,0,1,3.27-.4,2.59,2.59,0,0,0-.85.57,26.76,26.76,0,0,0-2.25,2.93l-.38.56a1.17,1.17,0,0,1-.56.51Z"/></g></g></svg>