<?xml version="1.0" encoding="iso-8859-1"?>
<!-- Generator: Adobe Illustrator 19.0.0, SVG Export Plug-In . SVG Version: 6.00 Build 0)  -->
<svg version="1.1" id="Capa_1" xmlns="http://www.w3.org/2000/svg" xmlns:xlink="http://www.w3.org/1999/xlink" x="0px" y="0px"
	 viewBox="0 0 417.94 417.94" style="enable-background:new 0 0 417.94 417.94;" xml:space="preserve">
<g>
	<path style="fill:#D4E1F4;" d="M248.48,179.481c-5.523-0.004-9.996-4.485-9.992-10.008c0.002-2.067,0.644-4.084,1.839-5.771
		l62.95-88.939c3.191-4.508,9.431-5.576,13.94-2.385c4.508,3.191,5.576,9.431,2.385,13.939l0,0l-62.951,88.94
		C254.777,177.91,251.729,179.486,248.48,179.481L248.48,179.481z"/>
	<path style="fill:#D4E1F4;" d="M171.442,191.64c-2.219,0.002-4.376-0.737-6.127-2.1l-83.68-64.99
		c-4.363-3.387-5.154-9.67-1.767-14.033c3.387-4.363,9.67-5.154,14.034-1.767l83.681,64.99c4.363,3.386,5.155,9.668,1.769,14.031
		C177.456,190.215,174.535,191.643,171.442,191.64L171.442,191.64z"/>
	<path style="fill:#D4E1F4;" d="M133.67,340.011c-5.523-0.005-9.996-4.486-9.991-10.009c0.002-2.066,0.643-4.08,1.836-5.766
		l53.43-75.55c3.144-4.541,9.373-5.673,13.914-2.529c4.541,3.144,5.673,9.373,2.529,13.914c-0.038,0.055-0.076,0.109-0.115,0.163
		l-53.43,75.55C139.969,338.439,136.92,340.016,133.67,340.011L133.67,340.011z"/>
	<path style="fill:#D4E1F4;" d="M303.228,356.711c-3.322,0.005-6.43-1.642-8.29-4.395l-61.569-90.94
		c-3.019-4.626-1.716-10.822,2.91-13.841s10.822-1.716,13.841,2.91l61.379,90.658c3.097,4.573,1.901,10.79-2.672,13.888
		C307.175,356.11,305.224,356.709,303.228,356.711z"/>
	<path style="fill:#D4E1F4;" d="M323.259,237.622c-0.657,0-1.313-0.065-1.958-0.193l-55.31-10.98
		c-5.417-1.076-8.937-6.339-7.862-11.757c1.076-5.417,6.339-8.937,11.757-7.861l0,0l55.309,10.98
		c5.418,1.069,8.945,6.328,7.876,11.746C332.147,234.244,328.036,237.622,323.259,237.622L323.259,237.622z"/>
</g>
<g>
	<path style="fill:#FEDB41;" d="M65.889,58.74c-21.414,0.003-38.771,17.366-38.768,38.78s17.366,38.771,38.78,38.768
		c21.41-0.003,38.765-17.358,38.768-38.768C104.642,76.114,87.295,58.767,65.889,58.74z"/>
	<path style="fill:#FEDB41;" d="M352.029,194.19c-21.42,0.003-38.783,17.37-38.78,38.79c0.003,21.42,17.37,38.783,38.79,38.78
		c21.42-0.003,38.783-17.37,38.78-38.79C390.795,211.559,373.44,194.209,352.029,194.19z"/>
</g>
<g>
	<path style="fill:#00EFD1;" d="M140.301,322.077c-21.319-18.813-53.852-16.782-72.665,4.537
		c-18.813,21.319-16.782,53.852,4.537,72.665c21.319,18.813,53.852,16.782,72.665-4.537c8.301-9.406,12.881-21.52,12.881-34.065
		C157.729,345.905,151.384,331.843,140.301,322.077z"/>
	<path style="fill:#00EFD1;" d="M323.249,330.21c-24.226,0.003-43.863,19.644-43.86,43.87c0.003,24.226,19.644,43.863,43.87,43.86
		c24.222-0.003,43.857-19.638,43.86-43.86C367.095,349.861,347.468,330.234,323.249,330.21z"/>
	<circle style="fill:#00EFD1;" cx="333.889" cy="48.38" r="48.38"/>
</g>
<path style="fill:#00ACEA;" d="M215.449,272.76c-34.51-0.011-62.476-27.995-62.466-62.504s27.995-62.476,62.504-62.466
	c14.304,0.004,28.174,4.917,39.293,13.916l0.01,0.008c26.822,21.711,30.965,61.054,9.255,87.876
	C252.175,264.254,234.315,272.769,215.449,272.76z"/>
<g>
</g>
<g>
</g>
<g>
</g>
<g>
</g>
<g>
</g>
<g>
</g>
<g>
</g>
<g>
</g>
<g>
</g>
<g>
</g>
<g>
</g>
<g>
</g>
<g>
</g>
<g>
</g>
<g>
</g>
</svg>
